<svg id="calendar_x5F_appointment" enable-background="new 0 0 300 300" height="512" viewBox="0 0 300 300" width="512" xmlns="http://www.w3.org/2000/svg"><g><path d="m128.364 57.204c2.362 0 4.277-1.915 4.277-4.276s-1.915-4.277-4.277-4.277-4.276 1.915-4.276 4.277 1.915 4.276 4.276 4.276z"/><path d="m51.359 48c2.209 0 4-1.791 4-4v-8c0-2.209-1.791-4-4-4s-4 1.791-4 4v8c0 2.209 1.791 4 4 4z"/><path d="m55.359 60c0-2.209-1.791-4-4-4s-4 1.791-4 4v8c0 2.209 1.791 4 4 4s4-1.791 4-4z"/><path d="m43.359 48h-8c-2.209 0-4 1.791-4 4s1.791 4 4 4h8c2.209 0 4-1.791 4-4s-1.791-4-4-4z"/><path d="m59.359 56h8c2.209 0 4-1.791 4-4s-1.791-4-4-4h-8c-2.209 0-4 1.791-4 4s1.791 4 4 4z"/><path d="m267.359 54c0-7.719-6.281-14-14-14s-14 6.281-14 14 6.281 14 14 14 14-6.281 14-14zm-14 6c-3.309 0-6-2.691-6-6s2.691-6 6-6 6 2.691 6 6-2.691 6-6 6z"/><path d="m264.364 132.651c-2.362 0-4.276 1.915-4.276 4.277s1.915 4.276 4.276 4.276 4.277-1.915 4.277-4.276-1.915-4.277-4.277-4.277z"/><path d="m222.681 92h-11.322v-4c0-6.617-5.383-12-12-12s-12 5.383-12 12v4h-76v-4c0-6.617-5.383-12-12-12s-12 5.383-12 12v4h-11.322c-11.402 0-20.678 9.275-20.678 20.676v137.232c0 9.977 8.115 18.092 18.092 18.092h151.816c9.977 0 18.092-8.115 18.092-18.092v-137.232c0-11.401-9.275-20.676-20.678-20.676zm-27.322-4c0-2.205 1.795-4 4-4s4 1.795 4 4v16c0 2.205-1.795 4-4 4s-4-1.795-4-4zm-100 0c0-2.205 1.795-4 4-4s4 1.795 4 4v16c0 2.205-1.795 4-4 4s-4-1.795-4-4zm-19.322 12h11.322v4c0 6.617 5.383 12 12 12s12-5.383 12-12v-4h76v4c0 6.617 5.383 12 12 12s12-5.383 12-12v-4h11.322c6.99 0 12.678 5.686 12.678 12.676v19.324h-172v-19.324c0-6.99 5.688-12.676 12.678-12.676zm149.23 160h-151.816c-5.564 0-10.092-4.527-10.092-10.092v-109.908h172v109.908c0 5.565-4.527 10.092-10.092 10.092z"/><path d="m148.998 209.549c1.561-2.377 1.416-5.465-.361-7.684l-15.658-19.559-11.072-16.252c-.141-.207-.301-.398-.479-.576-6.039-6.043-16.576-6.043-22.615 0-1.898 1.898-3.297 4.26-4.041 6.828-.473 1.631-1.633 2.791-3.262 3.264-2.568.744-4.93 2.143-6.828 4.041-6.236 6.234-6.236 16.381 0 22.615.176.178.369.338.576.479l16.006 10.887 19.803 15.846c1.195.953 2.639 1.436 4.088 1.436 1.246 0 2.498-.357 3.596-1.078 2.377-1.561 3.471-4.453 2.723-7.195l-3.873-14.203 14.203 3.875c2.75.75 5.635-.349 7.194-2.724zm-20.028-9.07c-2.65-.717-5.395.01-7.342 1.953-1.943 1.945-2.67 4.689-1.947 7.34l2.9 10.635-16.568-13.244-15.91-10.836c-2.879-3.133-2.801-8.023.234-11.059.961-.961 2.105-1.639 3.4-2.014 4.23-1.229 7.488-4.486 8.717-8.719.375-1.295 1.053-2.439 2.014-3.4 2.939-2.939 8.018-3.033 11.059-.234l11.021 16.156 13.055 16.322z"/><circle cx="85.359" cy="162" r="4.294"/><circle cx="85.359" cy="226" r="4.294"/><circle cx="149.359" cy="162" r="4.294"/><circle cx="149.359" cy="226" r="4.294"/><circle cx="181.359" cy="162" r="4.294"/><path d="m181.359 208c-9.926 0-18 8.074-18 18s8.074 18 18 18 18-8.074 18-18-8.074-18-18-18zm0 28c-5.514 0-10-4.486-10-10s4.486-10 10-10 10 4.486 10 10-4.486 10-10 10z"/><circle cx="181.359" cy="194" r="4.294"/><circle cx="181.359" cy="226" r="4.294"/><circle cx="213.359" cy="162" r="4.294"/><circle cx="213.359" cy="194" r="4.294"/><circle cx="213.359" cy="226" r="4.294"/></g></svg>