<svg height="480pt" viewBox="-63 0 479 480" width="480pt" xmlns="http://www.w3.org/2000/svg"><path d="m80.5 48h32v16h-32zm0 0"/><path d="m128.5 48h80v16h-80zm0 0"/><path d="m80.5 80h192v16h-192zm0 0"/><path d="m320.5 48.800781v-32.800781c0-8.835938-7.164062-16-16-16h-256c-8.835938 0-16 7.164062-16 16v32.800781c-18.613281 3.828125-31.976562 20.199219-32 39.199219v384c0 4.417969 3.582031 8 8 8h336c4.417969 0 8-3.582031 8-8v-384c-.023438-19-13.386719-35.371094-32-39.199219zm16 359.398438c-6.882812-5.289063-15.316406-8.171875-24-8.199219h-272c-8.683594.03125-17.117188 2.914062-24 8.207031v-280.207031h320zm0-320.199219v24h-16v-46.632812c9.582031 3.402343 15.988281 12.464843 16 22.632812zm-64-72v25.054688l-11.558594-7.710938c-2.691406-1.792969-6.191406-1.792969-8.882812 0l-11.558594 7.710938v-25.054688zm-224 0h176v40c0 2.949219 1.625 5.664062 4.226562 7.054688 2.601563 1.390624 5.757813 1.238281 8.214844-.398438l19.558594-13.054688 19.558594 13.039063c2.453125 1.636719 5.609375 1.789063 8.207031.402344 2.601563-1.386719 4.230469-4.09375 4.234375-7.042969v-40h16v96h-256zm-32 72c.011719-10.167969 6.417969-19.230469 16-22.632812v46.632812h-16zm320 376h-320v-24c0-13.253906 10.746094-24 24-24h272c13.253906 0 24 10.746094 24 24zm0 0"/><path d="m176.5 216c17.671875 0 32-14.328125 32-32s-14.328125-32-32-32-32 14.328125-32 32v72c0 17.671875 14.328125 32 32 32s32-14.328125 32-32h-16c0 8.835938-7.164062 16-16 16s-16-7.164062-16-16v-44.449219c4.84375 2.878907 10.367188 4.417969 16 4.449219zm0-48c8.835938 0 16 7.164062 16 16s-7.164062 16-16 16-16-7.164062-16-16 7.164062-16 16-16zm0 0"/><path d="m173.460938 191.359375c1.9375.851563 4.140624.851563 6.078124 0 .96875-.40625 1.863282-.972656 2.640626-1.679687 1.503906-1.503907 2.339843-3.550782 2.320312-5.679688-.011719-2.121094-.84375-4.15625-2.320312-5.679688-1.921876-1.875-4.644532-2.683593-7.28125-2.160156-.5.085938-.984376.25-1.4375.480469-.511719.175781-.996094.417969-1.441407.71875-.417969.296875-.820312.617187-1.199219.960937-1.460937 1.53125-2.289062 3.5625-2.320312 5.679688-.019531 2.128906.816406 4.175781 2.320312 5.679688.777344.707031 1.671876 1.273437 2.640626 1.679687zm0 0"/></svg>