<svg height="393pt" viewBox="0 -8 393.98923 393" width="393pt" xmlns="http://www.w3.org/2000/svg"><path d="m51.433594 378.320312v.074219h265.300781c21.304687-.039062 39.660156-15.019531 43.964844-35.886719l32.304687-113.65625.136719-.558593c2.597656-13.167969-.832031-26.8125-9.355469-37.183594-8.523437-10.375-21.246094-16.382813-34.667968-16.382813h-13.785157v-115.449218c0-1.800782-.695312-3.535156-1.941406-4.835938l-49.527344-51.785156c-.027343-.027344-.058593-.050781-.085937-.082031-.046875-.046875-.097656-.089844-.148438-.136719-.117187-.113281-.234375-.222656-.355468-.324219-.050782-.042969-.105469-.082031-.15625-.121093-.128907-.101563-.253907-.199219-.386719-.289063-.066407-.042969-.132813-.082031-.199219-.125-.125-.078125-.25-.15625-.378906-.226563-.097656-.058593-.207032-.101562-.3125-.15625-.101563-.050781-.199219-.097656-.300782-.144531-.175781-.074219-.355468-.136719-.539062-.199219-.035156-.011718-.070312-.027343-.105469-.039062-.507812-.15625-1.035156-.253906-1.566406-.292969-.171875-.011719-.347656-.023437-.523437-.023437h-134.167969c-14.734375.015625-26.675781 11.953125-26.691407 26.6875v8.390625h-11.898437c-2.441406 0-4.867187.339843-7.214844 1h-51.632812c-26.054688.03125-47.167969 21.144531-47.199219 47.199219v240.359374c.0351562 28.855469 22.621094 52.648438 51.433594 54.1875zm321.535156-178.320312c5.816406 7.054688 8.195312 16.332031 6.488281 25.316406l-32.300781 113.632813-.132812.558593c-2.882813 14.449219-15.554688 24.863282-30.289063 24.890626h-226.011719c8.050782-7.304688 13.71875-16.867188 16.265625-27.4375l41.191407-123.886719.167968-.59375c3.265625-13.945313 15.71875-23.792969 30.042969-23.75h170.726563c9.238281-.015625 17.996093 4.121093 23.851562 11.269531zm-272.46875 112.09375-6.894531 20.730469-.167969.59375c-.476562 2.003906-1.105469 3.96875-1.878906 5.875h-23.535156c-7.007813-.003907-12.6875-5.683594-12.691407-12.691407v-223.71875c.003907-7.003906 5.683594-12.683593 12.691407-12.6875h11.332031v195.789063c.019531 12.597656 8.824219 23.472656 21.144531 26.109375zm185.300781-287.15625 26.167969 27.363281h-26.167969zm-141.164062-10.4375h127.164062v44.800781c0 3.867188 3.132813 7 7 7h42.53125v108.425781h-142.941406c-20.699219-.0625-38.730469 14.089844-43.589844 34.210938l-2.859375 8.589844v-190.339844c.011719-7.007812 5.6875-12.683594 12.695313-12.6875zm-26.691407 35.082031v210.058594l-12.960937 38.984375c-6.566406-.554688-11.617187-6.042969-11.628906-12.632812v-223.726563c.007812-7.007813 5.683593-12.683594 12.691406-12.691406zm-103.945312 34.191407c.019531-18.328126 14.871094-33.179688 33.199219-33.199219h34.859375c-1.78125 3.640625-2.703125 7.640625-2.699219 11.691406v13.929687h-11.335937c-14.734376.015626-26.675782 11.957032-26.691407 26.6875v223.71875c.015625 14.734376 11.957031 26.671876 26.691407 26.691407h14.046874c-11.671874 11.097656-28.832031 14.183593-43.640624 7.839843-14.804688-6.34375-24.414063-20.894531-24.429688-37zm0 0"/></svg>